<svg width="25" height="26" viewBox="0 0 25 26" fill="none" xmlns="http://www.w3.org/2000/svg">
<path d="M14.2675 13.0001L22.1337 5.13381C22.3681 4.89942 22.4998 4.58153 22.4998 4.25006C22.4998 3.91858 22.3681 3.60069 22.1337 3.36631C21.8994 3.13192 21.5815 3.00024 21.25 3.00024C20.9185 3.00024 20.6006 3.13192 20.3662 3.36631L12.5 11.2326L4.63374 3.36631C4.51769 3.25025 4.37991 3.15819 4.22828 3.09538C4.07664 3.03257 3.91412 3.00024 3.74999 3.00024C3.58587 3.00024 3.42335 3.03257 3.27171 3.09538C3.12008 3.15819 2.9823 3.25025 2.86624 3.36631C2.63186 3.60069 2.50018 3.91858 2.50018 4.25006C2.50018 4.58153 2.63186 4.89942 2.86624 5.13381L10.7325 13.0001L2.86624 20.8663C2.63186 21.1007 2.50018 21.4186 2.50018 21.7501C2.50018 22.0815 2.63186 22.3994 2.86624 22.6338C3.10063 22.8682 3.41852 22.9999 3.74999 22.9999C4.08147 22.9999 4.39936 22.8682 4.63374 22.6338L12.5 14.7676L20.3662 22.6338C20.4821 22.7503 20.6198 22.8427 20.7714 22.9058C20.9231 22.9689 21.0857 23.0014 21.25 23.0014C21.4143 23.0014 21.5769 22.9689 21.7286 22.9058C21.8802 22.8427 22.0179 22.7503 22.1337 22.6338C22.2499 22.5178 22.3421 22.3801 22.405 22.2284C22.4679 22.0768 22.5002 21.9142 22.5002 21.7501C22.5002 21.5859 22.4679 21.4233 22.405 21.2717C22.3421 21.12 22.2499 20.9823 22.1337 20.8663L14.2675 13.0001Z" fill="#7F7F7F"/>
</svg>
