<svg width="24" height="24" viewBox="0 0 24 24" fill="none" xmlns="http://www.w3.org/2000/svg">
<path d="M3.25875 0.755371C1.87814 0.755371 0.755371 1.87814 0.755371 3.25875V8.26551C0.755371 9.64613 1.87814 10.7689 3.25875 10.7689H8.26551C9.64613 10.7689 10.7689 9.64613 10.7689 8.26551V3.25875C10.7689 1.87814 9.64613 0.755371 8.26551 0.755371H3.25875ZM15.7757 0.755371C14.395 0.755371 13.2723 1.87814 13.2723 3.25875V8.26551C13.2723 9.64613 14.395 10.7689 15.7757 10.7689H20.7824C22.163 10.7689 23.2858 9.64613 23.2858 8.26551V3.25875C23.2858 1.87814 22.163 0.755371 20.7824 0.755371H15.7757ZM4.51044 4.51044H7.01382V7.01382H4.51044V4.51044ZM18.279 4.51044C18.97 4.51044 19.5307 5.0712 19.5307 5.76213C19.5307 6.45307 18.97 7.01382 18.279 7.01382C17.5881 7.01382 17.0273 6.45307 17.0273 5.76213C17.0273 5.0712 17.5881 4.51044 18.279 4.51044ZM3.25875 13.2723C1.87814 13.2723 0.755371 14.395 0.755371 15.7757V20.7824C0.755371 22.163 1.87814 23.2858 3.25875 23.2858H8.26551C9.64613 23.2858 10.7689 22.163 10.7689 20.7824V15.7757C10.7689 14.395 9.64613 13.2723 8.26551 13.2723H3.25875ZM15.7757 13.2723C14.395 13.2723 13.2723 14.395 13.2723 15.7757V20.7824C13.2723 22.163 14.395 23.2858 15.7757 23.2858H20.7824C22.163 23.2858 23.2858 22.163 23.2858 20.7824V15.7757C23.2858 14.395 22.163 13.2723 20.7824 13.2723H15.7757ZM5.76213 17.0273C6.45307 17.0273 7.01382 17.5881 7.01382 18.279C7.01382 18.97 6.45307 19.5307 5.76213 19.5307C5.0712 19.5307 4.51044 18.97 4.51044 18.279C4.51044 17.5881 5.0712 17.0273 5.76213 17.0273ZM17.0273 17.0273H19.5307V19.5307H17.0273V17.0273Z" fill="#A4AAAC"/>
</svg>
