<svg width="23" height="23" viewBox="0 0 23 23" fill="none" xmlns="http://www.w3.org/2000/svg">
<path d="M1.06288 0.00561523C0.510129 0.00561523 0.0615234 0.454221 0.0615234 1.00697V5.01238C0.0615234 5.56512 0.510129 6.01373 1.06288 6.01373H6.06964C6.62238 6.01373 7.07099 5.56512 7.07099 5.01238V1.00697C7.07099 0.454221 6.62238 0.00561523 6.06964 0.00561523H1.06288ZM11.0764 2.00832C10.9437 2.00644 10.812 2.03096 10.6888 2.08044C10.5657 2.12992 10.4536 2.20338 10.3591 2.29655C10.2646 2.38972 10.1896 2.50074 10.1384 2.62316C10.0872 2.74559 10.0608 2.87697 10.0608 3.00967C10.0608 3.14238 10.0872 3.27376 10.1384 3.39618C10.1896 3.5186 10.2646 3.62963 10.3591 3.7228C10.4536 3.81597 10.5657 3.88943 10.6888 3.93891C10.812 3.98839 10.9437 4.0129 11.0764 4.01102H21.0899C21.2226 4.0129 21.3544 3.98839 21.4775 3.93891C21.6006 3.88943 21.7127 3.81597 21.8072 3.7228C21.9017 3.62963 21.9767 3.5186 22.0279 3.39618C22.0792 3.27376 22.1055 3.14238 22.1055 3.00967C22.1055 2.87697 22.0792 2.74559 22.0279 2.62316C21.9767 2.50074 21.9017 2.38972 21.8072 2.29655C21.7127 2.20338 21.6006 2.12992 21.4775 2.08044C21.3544 2.03096 21.2226 2.00644 21.0899 2.00832H11.0764ZM1.06288 8.01643C0.510129 8.01643 0.0615234 8.46504 0.0615234 9.01779V13.0232C0.0615234 13.5759 0.510129 14.0245 1.06288 14.0245H6.06964C6.62238 14.0245 7.07099 13.5759 7.07099 13.0232V9.01779C7.07099 8.46504 6.62238 8.01643 6.06964 8.01643H1.06288ZM11.0764 10.0191C10.9437 10.0173 10.812 10.0418 10.6888 10.0913C10.5657 10.1407 10.4536 10.2142 10.3591 10.3074C10.2646 10.4005 10.1896 10.5116 10.1384 10.634C10.0872 10.7564 10.0608 10.8878 10.0608 11.0205C10.0608 11.1532 10.0872 11.2846 10.1384 11.407C10.1896 11.5294 10.2646 11.6404 10.3591 11.7336C10.4536 11.8268 10.5657 11.9002 10.6888 11.9497C10.812 11.9992 10.9437 12.0237 11.0764 12.0218H21.0899C21.2226 12.0237 21.3544 11.9992 21.4775 11.9497C21.6006 11.9002 21.7127 11.8268 21.8072 11.7336C21.9017 11.6404 21.9767 11.5294 22.0279 11.407C22.0792 11.2846 22.1055 11.1532 22.1055 11.0205C22.1055 10.8878 22.0792 10.7564 22.0279 10.634C21.9767 10.5116 21.9017 10.4005 21.8072 10.3074C21.7127 10.2142 21.6006 10.1407 21.4775 10.0913C21.3544 10.0418 21.2226 10.0173 21.0899 10.0191H11.0764ZM1.06288 16.0273C0.510129 16.0273 0.0615234 16.4759 0.0615234 17.0286V21.034C0.0615234 21.5868 0.510129 22.0354 1.06288 22.0354H6.06964C6.62238 22.0354 7.07099 21.5868 7.07099 21.034V17.0286C7.07099 16.4759 6.62238 16.0273 6.06964 16.0273H1.06288ZM11.0764 18.03C10.9437 18.0281 10.812 18.0526 10.6888 18.1021C10.5657 18.1516 10.4536 18.225 10.3591 18.3182C10.2646 18.4114 10.1896 18.5224 10.1384 18.6448C10.0872 18.7672 10.0608 18.8986 10.0608 19.0313C10.0608 19.164 10.0872 19.2954 10.1384 19.4178C10.1896 19.5402 10.2646 19.6513 10.3591 19.7444C10.4536 19.8376 10.5657 19.9111 10.6888 19.9605C10.812 20.01 10.9437 20.0345 11.0764 20.0327H21.0899C21.2226 20.0345 21.3544 20.01 21.4775 19.9605C21.6006 19.9111 21.7127 19.8376 21.8072 19.7444C21.9017 19.6513 21.9767 19.5402 22.0279 19.4178C22.0792 19.2954 22.1055 19.164 22.1055 19.0313C22.1055 18.8986 22.0792 18.7672 22.0279 18.6448C21.9767 18.5224 21.9017 18.4114 21.8072 18.3182C21.7127 18.225 21.6006 18.1516 21.4775 18.1021C21.3544 18.0526 21.2226 18.0281 21.0899 18.03H11.0764Z" fill="#A4AAAC"/>
</svg>
