<svg width="36" height="35" viewBox="0 0 36 35" fill="none" xmlns="http://www.w3.org/2000/svg">
<path d="M17.9998 1.3999C12.9822 1.3999 8.89981 5.48232 8.89981 10.4999C8.89981 14.0546 11.0736 18.4433 13.1982 22.0444C15.3201 25.6456 17.442 28.4265 17.442 28.4265L17.9998 29.1511L18.5576 28.4265C18.5576 28.4265 20.6795 25.6456 22.8014 22.0444C24.926 18.4433 27.0998 14.0546 27.0998 10.4999C27.0998 5.48232 23.0174 1.3999 17.9998 1.3999ZM17.9998 2.7999C22.26 2.7999 25.6998 6.23975 25.6998 10.4999C25.6998 13.4503 23.6736 17.8116 21.5982 21.3335C19.799 24.3823 18.451 26.1378 17.9998 26.7394C17.5486 26.1378 16.2006 24.3823 14.4014 21.3335C12.326 17.8116 10.2998 13.4503 10.2998 10.4999C10.2998 6.23975 13.7396 2.7999 17.9998 2.7999ZM17.9998 6.9999C16.0748 6.9999 14.4998 8.5749 14.4998 10.4999C14.4998 12.4249 16.0748 13.9999 17.9998 13.9999C19.9248 13.9999 21.4998 12.4249 21.4998 10.4999C21.4998 8.5749 19.9248 6.9999 17.9998 6.9999ZM17.9998 8.3999C19.1674 8.3999 20.0998 9.33232 20.0998 10.4999C20.0998 11.6675 19.1674 12.5999 17.9998 12.5999C16.8322 12.5999 15.8998 11.6675 15.8998 10.4999C15.8998 9.33232 16.8322 8.3999 17.9998 8.3999ZM5.60762 22.3999L1.60449 33.5999H34.3951L30.392 22.3999H25.0354C24.7619 22.8812 24.4885 23.3487 24.215 23.7999H29.4076L32.4045 32.1999H3.59512L6.59199 23.7999H11.7846C11.5111 23.3487 11.2377 22.8812 10.9643 22.3999H5.60762Z" fill="#0F83B2"/>
</svg>
