<svg width="36" height="35" viewBox="0 0 36 35" fill="none" xmlns="http://www.w3.org/2000/svg">
<path d="M8.78784 2.09187C8.24916 2.04812 7.65034 2.20398 7.09799 2.59226C6.61127 2.93132 5.56127 3.7653 4.57963 4.70866C4.09018 5.17898 3.6226 5.66843 3.26166 6.14968C2.89799 6.63093 2.5808 7.07116 2.59994 7.71101C2.61909 8.28523 2.67651 9.98327 3.89877 12.5864C5.12104 15.1868 7.49174 18.7551 12.1156 23.3817C16.7421 28.0083 20.3105 30.379 22.9109 31.6012C25.5113 32.8235 27.2121 32.8809 27.7863 32.9001C28.4234 32.9192 28.8636 32.602 29.3449 32.2383C29.8261 31.8747 30.3156 31.4098 30.7859 30.9204C31.7265 29.9387 32.5605 28.8887 32.8996 28.402C33.6734 27.3001 33.5449 25.9985 32.6835 25.3942C32.1421 25.0141 27.1628 21.7001 26.4136 21.2407C25.6535 20.7759 24.7785 20.9864 23.9964 21.3993C23.3812 21.7247 21.716 22.679 21.2402 22.9524C20.882 22.7255 19.523 21.8204 16.5999 18.8973C13.6742 15.9743 12.7718 14.6153 12.5449 14.2571C12.8183 13.7813 13.7699 12.1243 14.098 11.4981C14.5081 10.7188 14.7378 9.83562 14.2484 9.06999C14.0433 8.7446 13.1109 7.32546 12.1703 5.90085C11.2269 4.47624 10.3328 3.12546 10.1003 2.8028V2.80007C9.79682 2.38171 9.32377 2.13562 8.78784 2.09187ZM17.9999 3.50007V4.90007C24.948 4.90007 30.5999 10.552 30.5999 17.5001H31.9999C31.9999 9.78093 25.7191 3.50007 17.9999 3.50007ZM8.65932 3.52194C8.85073 3.54655 8.96557 3.62312 8.96557 3.62312C9.07768 3.77898 10.0593 5.25007 10.9999 6.67194C11.9406 8.09655 12.9003 9.55671 13.0671 9.82194C13.0945 9.86296 13.1328 10.3278 12.8593 10.8446V10.8473C12.5503 11.4352 11.1093 13.9536 11.1093 13.9536L10.9097 14.3063L11.1148 14.6563C11.1148 14.6563 12.1894 16.4692 15.6074 19.8872C19.0281 23.3051 20.841 24.3825 20.841 24.3825L21.191 24.5876L21.5437 24.388C21.5437 24.388 24.0566 22.9497 24.6499 22.638C25.1667 22.3673 25.6316 22.4028 25.6863 22.4356C26.1703 22.7337 31.5488 26.3075 31.8796 26.5399C31.8906 26.5481 32.1832 26.9911 31.7566 27.5981H31.7539C31.4968 27.9673 30.6546 29.0364 29.7769 29.9497C29.3367 30.4063 28.8855 30.8329 28.5027 31.12C28.1199 31.4071 27.7781 31.4973 27.8328 31.5001C27.2367 31.4809 25.9214 31.4673 23.507 30.3325C21.0925 29.2005 17.6472 26.9337 13.1054 22.3891C8.56635 17.8501 6.29955 14.4048 5.16479 11.9876C4.03276 9.57312 4.01909 8.25788 3.99994 7.66452C4.00268 7.71921 4.09291 7.37468 4.38002 6.99187C4.66713 6.60905 5.09096 6.15515 5.5476 5.71491C6.46362 4.83718 7.53002 3.99499 7.89916 3.73796V3.74069C8.20268 3.52741 8.46791 3.50007 8.65932 3.52194ZM17.9999 7.38015V8.78015C22.8097 8.78015 26.7199 12.693 26.7199 17.5001H28.1199C28.1199 11.9192 23.5808 7.38015 17.9999 7.38015ZM17.9999 11.2001V12.6001C20.7015 12.6001 22.8999 14.7985 22.8999 17.5001H24.2999C24.2999 14.0247 21.4726 11.2001 17.9999 11.2001Z" fill="#0F83B2"/>
</svg>
