<svg width="51" height="50" viewBox="0 0 51 50" fill="none" xmlns="http://www.w3.org/2000/svg">
<path d="M47.1914 36.4542C47.1914 38.7552 45.3258 40.6208 43.0247 40.6208H7.60807C5.30703 40.6208 3.44141 38.7552 3.44141 36.4542V13.5375C3.44141 11.2365 5.30703 9.37085 7.60807 9.37085H43.0247C45.3258 9.37085 47.1914 11.2365 47.1914 13.5375V36.4542Z" fill="#1976D2"/>
<path d="M23.4987 20.8292L21.2976 25.7073L19.107 20.8292H16.2997V27.8355L13.1716 20.8292H10.8028L7.60803 28.1011H9.49866L10.1976 26.4782H13.7726L14.483 28.1011H18.0924V22.7001L20.4872 28.1011H22.1153L24.5643 22.7938V28.1011H26.358V20.8292H23.4987ZM10.8737 24.9073L11.9424 22.3657L13.0528 24.9073H10.8737ZM39.7778 24.3844L43.0247 20.848H40.7153L38.6382 23.1021L36.6289 20.8292H29.483V28.1021H36.3945L38.5737 25.6948L40.6987 28.1209H43.0007L39.7778 24.3844ZM35.4497 26.5751H31.2716V25.1365H35.2695V23.7584H31.2716V22.3959L35.682 22.4084L37.4455 24.3844L35.4497 26.5751Z" fill="white"/>
</svg>
