<svg width="51" height="50" viewBox="0 0 51 50" fill="none" xmlns="http://www.w3.org/2000/svg">
<path d="M10.8268 9.37085H22.8946C24.5789 9.37085 25.6268 10.7896 25.2341 12.5365L19.6154 37.4604C19.2185 39.2011 17.5321 40.6208 15.8466 40.6208H3.77997C2.35393 40.6198 1.38205 39.6 1.3581 38.2292C1.35393 37.9823 1.37997 37.725 1.44039 37.4594L7.06122 12.5354C7.45393 10.7896 9.14039 9.37085 10.8268 9.37085Z" fill="#E21836"/>
<path d="M21.6705 9.37085H35.7018C37.4278 9.37085 36.6497 10.7896 36.2435 12.5365L30.4862 37.4615C30.082 39.2011 30.208 40.6208 28.4778 40.6208H14.2539C12.806 40.6208 11.8205 39.6261 11.7758 38.2813C11.7674 38.0198 11.7945 37.7438 11.8601 37.4604L17.8091 12.5354C18.2195 10.7896 19.7508 9.37085 21.4789 9.37085" fill="#00447C"/>
<path d="M34.9758 9.37085H46.8518C48.0841 9.37085 48.9758 10.1281 49.2123 11.2177C49.2581 11.4302 49.2789 11.6552 49.2737 11.8896C49.2685 12.0979 49.2414 12.3146 49.1914 12.5354L43.5737 37.4604C43.1768 39.2011 41.4883 40.6208 39.8018 40.6208H27.7393C26.3279 40.6208 25.3654 39.6281 25.3185 38.2865C25.3091 38.0229 25.3352 37.7469 25.3998 37.4615L31.2102 12.5365C31.6039 10.7896 33.2883 9.37085 34.9758 9.37085Z" fill="#007B84"/>
<path d="M20.4872 18.8677C20.1487 18.6646 19.5445 18.7281 19.131 19.0083C18.7185 19.2823 18.6622 19.6708 18.9997 19.876C19.332 20.0729 19.9393 20.0156 20.3497 19.7333C20.7601 19.4541 20.8216 19.0687 20.4872 18.8677ZM44.3872 20.1791L43.1674 22.3125L42.8935 19.7875L41.6018 20.0937L42.0747 24.2219L40.6008 26.6104C40.5612 26.6666 40.5258 26.7052 40.4768 26.7218C40.4226 26.7479 40.3539 26.7531 40.2581 26.7531H40.2164L39.8997 27.7291L40.681 27.7302C41.2331 27.7281 41.6226 27.4302 41.8185 27.0791L46.1497 19.7875L44.3872 20.1791ZM23.3966 26.0375L22.9758 26.7677C22.8851 26.9271 22.731 27.0791 22.3893 27.0791H22.1799L21.8862 27.9906H22.582C23.4018 27.9906 23.7883 27.5416 23.7883 27.5416H25.9612L26.2747 26.5698H24.4497L24.7414 26.0385L23.3966 26.0375ZM11.1664 20.7094C10.9643 21.4906 10.8112 22.001 10.4591 22.3604C10.2164 22.6083 9.84139 22.726 9.49764 22.725C8.9841 22.725 8.54972 22.401 8.57785 21.8677C8.57993 21.8281 8.58514 21.7864 8.59243 21.7437C8.84451 20.3406 9.94347 16.6625 9.94347 16.6625H7.89451L6.83201 20.8604C6.83201 20.8604 6.5716 21.8687 6.56639 22.2969C6.56222 22.6229 6.61535 22.8896 6.73722 23.1146C7.12889 23.8281 8.28722 23.9541 8.94972 23.9541C10.0831 23.9541 10.7528 23.8458 11.3008 23.5125C12.1747 22.9812 12.4278 22.2625 12.6976 21.2468C13.0018 20.1052 13.8581 16.6625 13.8581 16.6625H12.1966C12.1966 16.6625 11.1674 20.7073 11.1664 20.7094ZM14.5883 23.9541L15.3226 20.9656C15.482 20.8969 15.6383 20.8291 15.7862 20.8291C16.1383 20.8291 16.2174 21.1219 16.1997 21.2385C16.1851 21.3802 15.5851 23.9541 15.5851 23.9541H17.0476L17.5591 21.8C17.7716 21.0041 17.8789 20.6 17.7435 20.2708C17.6018 19.9031 17.2393 19.7875 16.9039 19.7875C16.6851 19.7875 16.2831 19.8635 15.9185 20.0312C15.7862 20.0948 15.6612 20.1687 15.5289 20.2416L15.6362 19.7854L14.081 20.0291L13.0768 23.9541H14.5883ZM26.9581 23.9541L27.6924 20.9656C27.8518 20.8969 28.0081 20.8291 28.156 20.8291C28.5081 20.8291 28.5872 21.1219 28.5695 21.2385C28.5549 21.3802 27.9549 23.9541 27.9549 23.9541H29.4174L29.9289 21.8C30.1414 21.0041 30.2487 20.6 30.1133 20.2708C29.9716 19.9031 29.6091 19.7875 29.2737 19.7875C29.0549 19.7875 28.6528 19.8635 28.2883 20.0312C28.156 20.0948 28.031 20.1687 27.8987 20.2416L28.006 19.7854L26.4508 20.0291L25.4466 23.9541H26.9581ZM18.0247 23.9541H19.5362L20.3174 20.8291L18.7695 21.0583L18.0247 23.9541ZM37.2164 17.3083C36.7851 16.6802 35.8945 16.6677 34.8653 16.6625H34.1081H32.4268L30.5247 23.9541H32.1695L32.8622 21.35H33.1685C34.2174 21.35 35.2226 21.3354 36.0945 20.7062C36.7039 20.2625 37.1706 19.6729 37.3737 18.876C37.4258 18.6812 37.4674 18.4489 37.4737 18.2166C37.481 17.9114 37.3872 17.5448 37.2164 17.3083ZM35.4643 18.9437C35.3445 19.4302 35.0185 19.8396 34.6081 20.0364C34.2706 20.2031 33.857 20.1791 33.4362 20.1781H33.1737L33.832 17.7041C33.9799 17.7041 34.2278 17.7041 34.4778 17.7041C35.2591 17.7041 35.507 18.201 35.5049 18.6156C35.5049 18.7229 35.4914 18.8333 35.4643 18.9437ZM29.9726 30.2041C29.9726 30.2041 29.8945 30.4323 29.8695 30.5093C29.8487 30.575 29.7653 30.725 29.5289 30.725H29.0924V30.2041H27.9206V32.8083C27.9133 32.9989 28.107 33.3291 28.9601 33.3291H29.931L30.2289 32.4166L29.3539 32.4177C29.0935 32.4177 29.0987 32.2969 29.0956 32.1052C29.0924 31.8969 29.0924 31.5062 29.0924 31.5062H29.9195C30.6799 31.5062 30.8466 30.875 30.9049 30.6864L31.0185 30.2041H29.9726Z" fill="#FEFEFE"/>
<path d="M30.3414 26.0375C28.7768 26.0375 28.4716 26.7354 28.4716 26.7354L28.6862 26.0375H27.4258L25.3643 32.3739C25.3425 32.4468 25.3143 32.5614 25.3164 32.6854C25.3227 32.9791 25.4977 33.3291 26.3206 33.3291L27.0685 33.3281L27.4018 32.2875C27.4018 32.2875 27.0268 32.2875 26.8966 32.2875C26.7331 32.2875 26.7664 32.1521 26.7664 32.1521L27.505 29.9104H29.357C30.8883 29.9104 31.1727 28.9729 31.3102 28.5458L32.1268 26.0375C32.1268 26.0375 30.9091 26.0375 30.3414 26.0375ZM29.7935 29.1625H27.7091L27.9237 28.5333H30.0122L29.7935 29.1625ZM30.3393 27.6187C30.3393 27.6187 29.2852 27.6083 29.1154 27.6396C28.3685 27.7687 28.055 28.1687 28.055 28.1687L28.407 27.0791H30.5143L30.3393 27.6187ZM39.3862 20.0312C39.3862 20.0312 39.3758 20.0729 39.357 20.1468C39.1966 19.9739 38.931 19.7875 38.5122 19.7875C37.9914 19.7875 37.5362 19.9739 37.0018 20.4302C36.532 20.8364 36.2966 21.3948 36.157 21.9291C36.1029 22.1271 36.0706 22.4406 36.0706 22.6521C36.0706 23.9541 37.1977 23.9541 37.4716 23.9541C37.8831 23.9541 38.2112 23.7969 38.4768 23.5927C38.4435 23.7208 38.382 23.9541 38.382 23.9541H39.8935L40.9414 19.7875L39.3862 20.0312ZM37.9185 23.0333C37.8529 23.0333 37.4622 23.0333 37.4716 22.6052C37.4758 22.3937 37.5258 22.1573 37.6018 21.8854C37.7789 21.2521 38.0175 20.6989 38.6435 20.6989C39.1331 20.6989 39.1237 21.0916 38.9143 21.8791C38.8539 22.1052 38.6841 22.5135 38.5518 22.7125C38.3591 23.0021 38.1393 23.0333 37.9185 23.0333ZM25.0748 20.301C24.7654 19.9125 24.2018 19.7885 23.6143 19.7875C23.2612 19.7875 22.4175 19.8198 21.7435 20.3906C21.2591 20.8031 21.0248 21.3635 20.8779 21.9C20.73 22.4469 20.5487 23.4323 21.4987 23.8C21.7914 23.9208 22.2175 23.9541 22.4935 23.9541C23.1966 23.9552 23.9227 23.7729 24.481 23.2302C24.9112 22.7906 25.1206 22.1354 25.1945 21.8656C25.4352 20.9729 25.2789 20.5552 25.0748 20.301ZM22.6383 23.0323C22.5727 23.0323 22.182 23.0323 22.1914 22.6041C22.1956 22.3927 22.2539 22.1135 22.3216 21.8844C22.4977 21.2885 22.7383 20.6979 23.3633 20.6979C23.8529 20.6979 23.8435 21.0906 23.6341 21.8781C23.5737 22.1041 23.4039 22.5125 23.2716 22.7114C23.0789 23.0021 22.8591 23.0333 22.6383 23.0323ZM22.032 28.2406L21.7289 29.1625H22.6102L22.3518 29.9635H21.4685L21.1498 30.9396H22.03L21.4716 32.6468C21.3966 32.8729 21.3935 33.3281 22.2404 33.3281H23.9352L24.2748 32.2875C24.2748 32.2875 23.305 32.2875 23.0445 32.2875C22.7841 32.2875 22.8539 32.1031 22.8539 32.1031L23.2373 30.9239H25.056L25.3706 29.9646H23.5508L23.8164 29.1625H25.6008L25.9102 28.2406H22.032ZM41.6706 29.075L41.9831 28.1208H37.7779L37.4716 29.075H38.7331L38.4758 29.8489H37.1925L36.9185 30.6948H38.0456L37.0425 32.0125C36.9622 32.1281 36.7925 32.2875 36.5133 32.2875H36.007L36.106 31.9864H35.6706L37.2737 27.0791H37.8435L38.0227 26.5396C38.0227 26.5396 38.0227 26.9364 38.0227 27.0781C38.0227 27.5302 38.1529 27.7302 38.8779 27.7302H39.3758L39.6914 26.7562H39.4591C39.306 26.7594 39.2331 26.7104 39.2456 26.6125V26.0375C39.2456 26.0375 38.4133 26.0375 37.9435 26.0375C36.7195 26.0375 35.9612 26.0948 35.6591 26.175C35.2935 26.2687 34.8185 26.5469 34.8185 26.5469L34.982 26.0375H33.6289L31.6893 31.9979H31.3977L31.0664 33.0062H34.0602L33.955 33.3291H35.2352L35.3393 33.0062H35.7581L35.6487 33.3291H36.7112C36.981 33.3291 37.1987 33.2687 37.38 33.1677C37.5695 33.0625 37.7185 32.9135 37.8456 32.7437L38.6331 31.6958L38.7529 32.7948C38.7831 32.9948 38.8602 33.3291 39.682 33.3291H40.2737L40.6164 32.2875H40.23C39.9539 32.2875 39.8945 32.0843 39.8789 31.9781L39.7414 30.9114H39.1008L39.3612 30.6948H41.1352L41.4143 29.8489H39.7633L40.0247 29.075H41.6706ZM34.6539 27.0791H36.0112L35.7216 27.9677C35.7216 27.9677 35.2404 27.9969 34.9998 28.051C34.5904 28.1448 34.2498 28.3094 34.2498 28.3094L34.6539 27.0791ZM34.4091 31.9979H33.0487L33.4102 30.8896H34.7675L34.4091 31.9979ZM35.1164 29.8104C35.1164 29.8104 34.756 29.8552 34.5185 29.9093C34.1029 30.0291 33.6279 30.2041 33.6279 30.2041L34.0445 28.9354H35.407L35.1164 29.8104Z" fill="#FEFEFE"/>
</svg>
