<svg width="51" height="50" viewBox="0 0 51 50" fill="none" xmlns="http://www.w3.org/2000/svg">
<path d="M47.1914 36.4542C47.1914 38.7552 45.3258 40.6208 43.0247 40.6208H7.60807C5.30703 40.6208 3.44141 38.7552 3.44141 36.4542V13.5375C3.44141 11.2365 5.30703 9.37085 7.60807 9.37085H43.0247C45.3258 9.37085 47.1914 11.2365 47.1914 13.5375V36.4542Z" fill="#1565C0"/>
<path d="M16.1352 19.7875L13.3998 27.9459C13.3998 27.9459 12.705 24.4948 12.6362 24.0615C11.0789 20.5084 8.78101 20.7063 8.78101 20.7063L11.4893 31.2459V31.2438H14.782L19.3352 19.7875H16.1352ZM18.7425 31.2459H21.7331L23.5414 19.7875H20.5133L18.7425 31.2459ZM39.9081 19.7875H36.7612L31.855 31.2459H34.8258L35.4383 29.6094H39.1841L39.5029 31.2459H42.2248L39.9081 19.7875ZM36.2675 27.4209L37.8956 23.0907L38.7477 27.4209H36.2675ZM27.7841 23.1271C27.7841 22.4959 28.3029 22.0261 29.7904 22.0261C30.757 22.0261 31.8643 22.7282 31.8643 22.7282L32.3498 20.323C32.3498 20.323 30.9352 19.7865 29.5466 19.7865C26.4018 19.7865 24.78 21.2907 24.78 23.1948C24.78 26.6386 28.9248 26.1667 28.9248 27.9355C28.9248 28.2386 28.6841 28.9396 26.9581 28.9396C25.2268 28.9396 24.0841 28.3052 24.0841 28.3052L23.5685 30.6136C23.5685 30.6136 24.6758 31.2448 26.8154 31.2448C28.9602 31.2448 31.9352 29.6407 31.9352 27.3365C31.9352 24.5646 27.7841 24.3646 27.7841 23.1271Z" fill="white"/>
<path d="M13.0372 25.9802L12.031 21.0344C12.031 21.0344 11.5758 19.9625 10.3925 19.9625C9.20912 19.9625 5.76746 19.9625 5.76746 19.9625C5.76746 19.9625 11.6643 21.7042 13.0372 25.9802Z" fill="#FFC107"/>
</svg>
