<svg width="51" height="50" viewBox="0 0 51 50" fill="none" xmlns="http://www.w3.org/2000/svg">
<path d="M47.1914 36.4542C47.1914 38.7458 45.3164 40.6208 43.0247 40.6208H7.60807C5.31641 40.6208 3.44141 38.7458 3.44141 36.4542V13.5375C3.44141 11.2458 5.31641 9.37085 7.60807 9.37085H43.0247C45.3164 9.37085 47.1914 11.2458 47.1914 13.5375V36.4542Z" fill="#E1E7EA"/>
<path d="M47.1914 36.4542C47.1914 38.7458 45.3164 40.6208 43.0247 40.6208H16.983C16.983 40.6208 41.5664 36.6625 47.1914 24.9958V36.4542ZM23.233 24.9958C23.233 26.7667 24.5872 28.1208 26.358 28.1208C28.1289 28.1208 29.483 26.7667 29.483 24.9958C29.483 23.225 28.1289 21.8708 26.358 21.8708C24.5872 21.8708 23.233 23.225 23.233 24.9958Z" fill="#FF6D00"/>
<path d="M11.9831 21.8709H13.1289V28.1209H11.9831V21.8709ZM18.2331 24.9959C18.2331 26.7667 19.5872 28.1209 21.3581 28.1209C21.8789 28.1209 22.2956 28.0167 22.8164 27.8084V26.4542C22.3997 26.8709 21.9831 27.0792 21.3581 27.0792C20.2122 27.0792 19.3789 26.2459 19.3789 24.9959C19.3789 23.8501 20.2122 22.9126 21.3581 22.9126C21.8789 22.9126 22.2956 23.1209 22.8164 23.5376V22.1834C22.2956 21.9751 21.8789 21.7667 21.3581 21.7667C19.5872 21.8709 18.2331 23.3292 18.2331 24.9959ZM32.1914 25.9334L30.5247 21.8709H29.2747L31.8789 28.1209H32.5039L35.1081 21.8709H33.8581L32.1914 25.9334ZM35.6289 28.1209H38.9622V27.0792H36.7747V25.4126H38.8581V24.3709H36.7747V22.9126H38.9622V21.8709H35.6289V28.1209ZM43.5456 23.7459C43.5456 22.6001 42.8164 21.8709 41.4622 21.8709H39.6914V28.1209H40.8372V25.6209H40.9414L42.6081 28.1209H44.0664L42.1914 25.5167C43.0247 25.3084 43.5456 24.6834 43.5456 23.7459ZM41.1497 24.7876H40.8372V22.9126H41.1497C41.8789 22.9126 42.2956 23.2251 42.2956 23.8501C42.2956 24.3709 41.9831 24.7876 41.1497 24.7876ZM8.33724 21.8709H6.56641V28.1209H8.23307C10.8372 28.1209 11.4622 25.9334 11.4622 24.9959C11.5664 23.1209 10.2122 21.8709 8.33724 21.8709ZM8.02474 27.0792H7.71224V22.9126H8.12891C9.69141 22.9126 10.3164 23.9542 10.3164 24.9959C10.3164 25.4126 10.2122 27.0792 8.02474 27.0792ZM16.2539 24.2667C15.5247 23.9542 15.3164 23.8501 15.3164 23.5376C15.3164 23.1209 15.7331 22.9126 16.1497 22.9126C16.4622 22.9126 16.7747 23.0167 17.0872 23.4334L17.7122 22.6001C17.1914 22.0792 16.6706 21.8709 15.9414 21.8709C14.8997 21.8709 14.0664 22.6001 14.0664 23.6417C14.0664 24.4751 14.4831 24.8917 15.5247 25.3084C16.1497 25.5167 16.6706 25.7251 16.6706 26.2459C16.6706 26.7667 16.2539 27.0792 15.7331 27.0792C15.2122 27.0792 14.6914 26.7667 14.4831 26.2459L13.7539 26.9751C14.2747 27.8084 14.8997 28.1209 15.8372 28.1209C17.0872 28.1209 17.9206 27.2876 17.9206 26.1417C17.9206 25.2042 17.5039 24.7876 16.2539 24.2667Z" fill="black"/>
</svg>
