<svg width="36" height="35" viewBox="0 0 36 35" fill="none" xmlns="http://www.w3.org/2000/svg">
<g clip-path="url(#clip0_0_1189)">
<path d="M0.5 4.8999V5.5999V30.0999H35.5V4.8999H0.5ZM1.9 6.2999H34.1V8.054C33.803 8.31287 21.3697 19.1491 20.3352 20.0497C19.4272 20.8402 18.5021 21.0013 18 21.0013C17.4984 21.0013 16.573 20.8403 15.6648 20.0497C14.6303 19.1491 2.197 8.31287 1.9 8.054V6.2999ZM1.9 9.90518C3.60658 11.3928 13.7774 20.2593 14.7475 21.1038C15.9379 22.1402 17.1982 22.3985 18 22.3985C18.8013 22.3985 20.0619 22.1403 21.2525 21.1038C22.2226 20.2593 32.3933 11.394 34.1 9.90654V28.6999H1.9V9.90518Z" fill="#0F83B2"/>
</g>
<defs>
<clipPath id="clip0_0_1189">
<rect width="35" height="35" fill="white" transform="translate(0.5)"/>
</clipPath>
</defs>
</svg>
