<svg width="26" height="26" viewBox="0 0 26 26" fill="none" xmlns="http://www.w3.org/2000/svg">
<path d="M1.10163 0.594914C1.07469 0.595208 1.04779 0.597246 1.02111 0.601013H0.483154V1.14019C0.475777 1.19525 0.475777 1.25104 0.483154 1.3061V8.09587C0.481983 8.17864 0.497273 8.26081 0.528136 8.33761C0.558998 8.41441 0.604817 8.48432 0.66293 8.54326C0.721043 8.6022 0.790291 8.649 0.86665 8.68095C0.943008 8.71289 1.02495 8.72934 1.10773 8.72934C1.1905 8.72934 1.27244 8.71289 1.3488 8.68095C1.42516 8.649 1.49441 8.6022 1.55252 8.54326C1.61063 8.48432 1.65645 8.41441 1.68731 8.33761C1.71818 8.26081 1.73347 8.17864 1.7323 8.09587V2.73334L10.0347 11.0358C10.1 11.1037 10.1797 11.156 10.268 11.1887C10.3563 11.2214 10.4509 11.2338 10.5446 11.2248C10.5651 11.223 10.5854 11.2201 10.6056 11.2163C10.7178 11.1943 10.8219 11.1419 10.9064 11.0649C10.9909 10.9878 11.0526 10.889 11.0848 10.7793C11.117 10.6695 11.1185 10.5531 11.0891 10.4426C11.0596 10.3321 11.0004 10.2317 10.9179 10.1526L2.61548 1.85016H7.97802C8.06078 1.85133 8.14295 1.83604 8.21975 1.80517C8.29655 1.77431 8.36646 1.72849 8.4254 1.67038C8.48434 1.61227 8.53114 1.54302 8.56309 1.46666C8.59503 1.3903 8.61148 1.30836 8.61148 1.22558C8.61148 1.14281 8.59503 1.06087 8.56309 0.984509C8.53114 0.908151 8.48434 0.838903 8.4254 0.78079C8.36646 0.722677 8.29655 0.676858 8.21975 0.645995C8.14295 0.615133 8.06078 0.599843 7.97802 0.601013H1.18092C1.15464 0.597298 1.12816 0.595261 1.10163 0.594914ZM24.8293 0.594914C24.806 0.595649 24.7828 0.597686 24.7597 0.601013H17.9712C17.8884 0.599843 17.8062 0.615133 17.7294 0.645995C17.6526 0.676858 17.5827 0.722677 17.5238 0.78079C17.4648 0.838903 17.418 0.908151 17.3861 0.984509C17.3541 1.06087 17.3377 1.14281 17.3377 1.22558C17.3377 1.30836 17.3541 1.3903 17.3861 1.46666C17.418 1.54302 17.4648 1.61227 17.5238 1.67038C17.5827 1.72849 17.6526 1.77431 17.7294 1.80517C17.8062 1.83604 17.8884 1.85133 17.9712 1.85016H23.3337L15.0313 10.1526C14.9713 10.2101 14.9235 10.2791 14.8905 10.3553C14.8575 10.4316 14.8401 10.5137 14.8393 10.5968C14.8384 10.6799 14.8542 10.7623 14.8856 10.8392C14.917 10.9162 14.9634 10.9861 15.0222 11.0448C15.081 11.1036 15.1509 11.15 15.2278 11.1814C15.3047 11.2129 15.3872 11.2286 15.4702 11.2278C15.5533 11.2269 15.6354 11.2095 15.7117 11.1765C15.788 11.1436 15.8569 11.0957 15.9145 11.0358L24.2169 2.73334V8.09587C24.2157 8.17864 24.231 8.26081 24.2619 8.33761C24.2927 8.41441 24.3385 8.48432 24.3967 8.54326C24.4548 8.6022 24.524 8.649 24.6004 8.68095C24.6767 8.71289 24.7587 8.72934 24.8415 8.72934C24.9242 8.72934 25.0062 8.71289 25.0825 8.68095C25.1589 8.649 25.2281 8.6022 25.2862 8.54326C25.3444 8.48432 25.3902 8.41441 25.421 8.33761C25.4519 8.26081 25.4672 8.17864 25.466 8.09587V1.30488C25.474 1.24782 25.474 1.18993 25.466 1.13288V0.601013H24.9329C24.8986 0.596105 24.8639 0.594065 24.8293 0.594914ZM10.4641 14.9601C10.3018 14.9649 10.1478 15.0327 10.0347 15.1491L1.7323 23.4516V18.089C1.73344 18.0055 1.71781 17.9225 1.68632 17.8451C1.65483 17.7677 1.60813 17.6974 1.54898 17.6384C1.48983 17.5793 1.41944 17.5328 1.34197 17.5014C1.2645 17.4701 1.18153 17.4546 1.09797 17.4559C0.932533 17.4585 0.774883 17.5266 0.659618 17.6453C0.544352 17.764 0.480888 17.9236 0.483154 18.089V24.8642C0.471599 24.9328 0.471599 25.0029 0.483154 25.0715V25.5839H0.997937C1.06578 25.5952 1.13503 25.5952 1.20287 25.5839H7.97802C8.06078 25.5851 8.14295 25.5698 8.21975 25.5389C8.29655 25.508 8.36646 25.4622 8.4254 25.4041C8.48434 25.346 8.53114 25.2767 8.56309 25.2004C8.59503 25.124 8.61148 25.0421 8.61148 24.9593C8.61148 24.8765 8.59503 24.7946 8.56309 24.7182C8.53114 24.6419 8.48434 24.5726 8.4254 24.5145C8.36646 24.4564 8.29655 24.4106 8.21975 24.3797C8.14295 24.3489 8.06078 24.3336 7.97802 24.3347H2.61548L10.9179 16.0323C11.0081 15.9446 11.0698 15.8317 11.0947 15.7083C11.1197 15.5849 11.1068 15.4569 11.0578 15.341C11.0087 15.2251 10.9258 15.1267 10.8198 15.0587C10.7139 14.9907 10.5899 14.9564 10.4641 14.9601ZM15.4668 14.9601C15.3463 14.9601 15.2283 14.9949 15.1272 15.0605C15.026 15.126 14.946 15.2194 14.8967 15.3294C14.8475 15.4394 14.8311 15.5613 14.8496 15.6804C14.868 15.7995 14.9205 15.9107 15.0008 16.0006C15.0106 16.0115 15.0208 16.0221 15.0313 16.0323L23.3337 24.3347H17.9712C17.8884 24.3336 17.8062 24.3489 17.7294 24.3797C17.6526 24.4106 17.5827 24.4564 17.5238 24.5145C17.4648 24.5726 17.418 24.6419 17.3861 24.7182C17.3541 24.7946 17.3377 24.8765 17.3377 24.9593C17.3377 25.0421 17.3541 25.124 17.3861 25.2004C17.418 25.2767 17.4648 25.346 17.5238 25.4041C17.5827 25.4622 17.6526 25.508 17.7294 25.5389C17.8062 25.5698 17.8884 25.5851 17.9712 25.5839H24.7463C24.8149 25.5954 24.885 25.5954 24.9537 25.5839H25.466V25.0691C25.4773 25.0013 25.4773 24.932 25.466 24.8642V18.089C25.4672 18.0055 25.4515 17.9225 25.42 17.8451C25.3886 17.7677 25.3419 17.6974 25.2827 17.6384C25.2236 17.5793 25.1532 17.5328 25.0757 17.5014C24.9982 17.4701 24.9153 17.4546 24.8317 17.4559C24.6663 17.4585 24.5086 17.5266 24.3933 17.6453C24.2781 17.764 24.2146 17.9236 24.2169 18.089V23.4516L15.9145 15.1491C15.8563 15.0893 15.7867 15.0418 15.7098 15.0093C15.6329 14.9768 15.5502 14.9601 15.4668 14.9601Z" fill="#929292"/>
</svg>
