<svg width="35" height="36" viewBox="0 0 35 36" fill="none" xmlns="http://www.w3.org/2000/svg">
<path d="M11.2001 2.23193C6.1811 2.23193 2.1001 6.31293 2.1001 11.3319V23.9319C2.1001 28.9509 6.1811 33.0319 11.2001 33.0319H23.8001C28.8191 33.0319 32.9001 28.9509 32.9001 23.9319V11.3319C32.9001 6.31293 28.8191 2.23193 23.8001 2.23193H11.2001ZM25.9001 7.83193C26.6701 7.83193 27.3001 8.46193 27.3001 9.23193C27.3001 10.0019 26.6701 10.6319 25.9001 10.6319C25.1301 10.6319 24.5001 10.0019 24.5001 9.23193C24.5001 8.46193 25.1301 7.83193 25.9001 7.83193ZM17.5001 9.93193C21.7491 9.93193 25.2001 13.3829 25.2001 17.6319C25.2001 21.8809 21.7491 25.3319 17.5001 25.3319C13.2511 25.3319 9.8001 21.8809 9.8001 17.6319C9.8001 13.3829 13.2511 9.93193 17.5001 9.93193ZM17.5001 11.3319C14.0281 11.3319 11.2001 14.1599 11.2001 17.6319C11.2001 21.1039 14.0281 23.9319 17.5001 23.9319C20.9721 23.9319 23.8001 21.1039 23.8001 17.6319C23.8001 14.1599 20.9721 11.3319 17.5001 11.3319Z" fill="#F26C62"/>
</svg>
