<svg width="51" height="50" viewBox="0 0 51 50" fill="none" xmlns="http://www.w3.org/2000/svg">
<path d="M47.1914 36.4542C47.1914 38.7552 45.3258 40.6208 43.0247 40.6208H7.60807C5.30703 40.6208 3.44141 38.7552 3.44141 36.4542V13.5375C3.44141 11.2365 5.30703 9.37085 7.60807 9.37085H43.0247C45.3258 9.37085 47.1914 11.2365 47.1914 13.5375V36.4542Z" fill="#3F51B5"/>
<path d="M31.5664 14.5792C28.8038 14.5792 26.1543 15.6767 24.2008 17.6302C22.2472 19.5837 21.1498 22.2332 21.1498 24.9959C21.1498 27.7586 22.2472 30.4081 24.2008 32.3616C26.1543 34.3151 28.8038 35.4126 31.5664 35.4126C34.3291 35.4126 36.9786 34.3151 38.9321 32.3616C40.8856 30.4081 41.9831 27.7586 41.9831 24.9959C41.9831 22.2332 40.8856 19.5837 38.9321 17.6302C36.9786 15.6767 34.3291 14.5792 31.5664 14.5792Z" fill="#FFC107"/>
<path d="M23.2476 31.2459C22.7643 30.6032 22.3487 29.9084 22.0226 29.1626H27.5695C27.8591 28.5001 28.0862 27.8042 28.233 27.0792H21.3601C21.2226 26.4063 21.1497 25.7105 21.1497 24.9959H28.4414C28.4414 24.2813 28.3684 23.5855 28.232 22.9126H21.3591C21.507 22.1876 21.733 21.4917 22.0226 20.8292H27.5695C27.2434 20.0834 26.8289 19.3886 26.3445 18.7459H23.2476C23.7028 18.1417 24.2164 17.5771 24.7903 17.0844C22.9695 15.5261 20.6091 14.5792 18.0247 14.5792C12.2716 14.5792 7.60803 19.2428 7.60803 24.9959C7.60803 30.749 12.2716 35.4126 18.0247 35.4126C21.4299 35.4126 24.4434 33.7719 26.3434 31.2459H23.2476Z" fill="#FF3D00"/>
</svg>
