<svg width="35" height="36" viewBox="0 0 35 36" fill="none" xmlns="http://www.w3.org/2000/svg">
<path d="M17.4999 1.53174C8.62241 1.53174 1.3999 8.75425 1.3999 17.6317C1.3999 24.5506 5.78721 30.4629 11.9254 32.7356C11.7486 31.1595 11.7763 28.5783 12.068 27.3286C12.3412 26.1547 13.8329 19.8476 13.8329 19.8476C13.8329 19.8476 13.3826 18.9457 13.3826 17.6138C13.3826 15.5207 14.5953 13.959 16.1055 13.959C17.3899 13.959 18.0093 14.9233 18.0093 16.0787C18.0093 17.3707 17.1879 19.3006 16.7624 21.0892C16.4076 22.5878 17.5138 23.8098 18.991 23.8098C21.6658 23.8098 23.7219 20.989 23.7219 16.918C23.7219 13.3147 21.1333 10.795 17.4362 10.795C13.1545 10.795 10.6411 14.007 10.6411 17.3267C10.6411 18.6198 11.139 20.0068 11.7612 20.7616C11.8839 20.9109 11.9019 21.0412 11.8654 21.1928C11.7514 21.668 11.4979 22.6903 11.4475 22.8998C11.3821 23.1759 11.2293 23.2332 10.9445 23.1007C9.0644 22.2254 7.8893 19.4777 7.8893 17.2699C7.8893 12.5229 11.3381 8.16238 17.8339 8.16238C23.0551 8.16238 27.1122 11.8821 27.1122 16.8549C27.1122 22.0419 23.8412 26.216 19.3024 26.216C17.7772 26.216 16.3439 25.4236 15.8537 24.4876C15.8537 24.4876 15.0989 27.361 14.9154 28.0654C14.5986 29.2837 13.2429 31.8076 12.5623 32.954C14.1192 33.457 15.7778 33.7317 17.4999 33.7317C26.3777 33.7317 33.5999 26.5096 33.5999 17.6317C33.5999 8.75425 26.3777 1.53174 17.4999 1.53174Z" fill="#F26C62"/>
</svg>
