<svg width="18" height="19" viewBox="0 0 18 19" fill="none" xmlns="http://www.w3.org/2000/svg">
<path fill-rule="evenodd" clip-rule="evenodd" d="M15.2998 8.60005H9.89981V3.20005C9.89981 2.70325 9.49751 2.30005 8.9998 2.30005C8.5021 2.30005 8.0998 2.70325 8.0998 3.20005V8.60005H2.6998C2.2021 8.60005 1.7998 9.00325 1.7998 9.50005C1.7998 9.99685 2.2021 10.4 2.6998 10.4H8.0998V15.8C8.0998 16.2968 8.5021 16.7 8.9998 16.7C9.49751 16.7 9.89981 16.2968 9.89981 15.8V10.4H15.2998C15.7975 10.4 16.1998 9.99685 16.1998 9.50005C16.1998 9.00325 15.7975 8.60005 15.2998 8.60005Z" fill="#5C5F62"/>
</svg>
