<svg width="35" height="36" viewBox="0 0 35 36" fill="none" xmlns="http://www.w3.org/2000/svg">
<path d="M17.4999 1.53174C8.6218 1.53174 1.3999 8.75364 1.3999 17.6317C1.3999 26.5098 8.6218 33.7317 17.4999 33.7317C26.378 33.7317 33.5999 26.5098 33.5999 17.6317C33.5999 8.75364 26.378 1.53174 17.4999 1.53174ZM25.3658 14.4985C25.3728 14.6637 25.377 14.8317 25.377 15.0004C25.377 20.123 21.4759 26.0317 14.3436 26.0317C12.154 26.0317 10.1149 25.3898 8.3999 24.2894C8.703 24.3258 9.0103 24.3433 9.3246 24.3433C11.1418 24.3433 12.8141 23.7245 14.1399 22.6843C12.4431 22.6535 11.0123 21.53 10.5174 19.9914C10.7547 20.0369 10.9976 20.0614 11.2482 20.0614C11.6017 20.0614 11.9447 20.0145 12.2688 19.9249C10.4964 19.5672 9.1601 18.002 9.1601 16.1225C9.1601 16.1057 9.1601 16.0896 9.1601 16.0735C9.683 16.364 10.2801 16.539 10.9164 16.5593C9.8748 15.8628 9.1916 14.677 9.1916 13.3316C9.1916 12.6211 9.382 11.9554 9.7159 11.3814C11.629 13.7271 14.4864 15.2706 17.7085 15.433C17.642 15.1488 17.607 14.8534 17.607 14.5496C17.607 12.4083 19.343 10.6723 21.485 10.6723C22.6001 10.6723 23.6074 11.1427 24.3144 11.8966C25.1971 11.723 26.028 11.4003 26.777 10.9565C26.4879 11.8609 25.8726 12.6211 25.0711 13.1013C25.8565 13.0061 26.6027 12.7989 27.2992 12.4902C26.7798 13.2679 26.1225 13.9518 25.3658 14.4985Z" fill="#F26C62"/>
</svg>
